<svg width="129" height="129" viewBox="0 0 129 129" fill="none" xmlns="http://www.w3.org/2000/svg">
<circle cx="64.5" cy="64.5" r="64.5" fill="#D9D9D9"/>
<path d="M8.58 60.54V43.32H6.84C5.98 43.32 5.28 43.36 4.74 43.44C4.2 43.5 3.8 43.63 3.54 43.83C3.28 44.01 3.13 44.28 3.09 44.64L2.79 47.58H1.17V41.7H18.78V47.58H17.19L16.89 44.64C16.87 44.28 16.72 44.01 16.44 43.83C16.18 43.63 15.78 43.5 15.24 43.44C14.7 43.36 14 43.32 13.14 43.32H11.37V60.54C11.37 60.98 11.61 61.27 12.09 61.41C12.57 61.55 13.18 61.62 13.92 61.62H14.4V63H5.58V61.62H6.06C6.78 61.62 7.38 61.55 7.86 61.41C8.34 61.27 8.58 60.98 8.58 60.54ZM26.3105 40.92V61.38C26.3105 61.44 26.4305 61.5 26.6705 61.56C26.9105 61.6 27.2005 61.63 27.5405 61.65C27.8805 61.67 28.1905 61.68 28.4705 61.68H28.5605V63H21.1205V61.68H21.1805C21.6405 61.68 22.0505 61.65 22.4105 61.59C22.7905 61.53 23.0905 61.42 23.3105 61.26C23.5305 61.1 23.6405 60.88 23.6405 60.6V43.68C23.6405 43.38 23.5605 43.15 23.4005 42.99C23.2405 42.83 23.0005 42.7 22.6805 42.6C22.3605 42.5 21.9505 42.41 21.4505 42.33L21.1205 42.27V40.92H26.3105ZM38.6405 63H31.2305V61.68H31.2905C31.5705 61.68 31.8805 61.67 32.2205 61.65C32.5605 61.63 32.8505 61.6 33.0905 61.56C33.3305 61.5 33.4505 61.44 33.4505 61.38V52.56C33.4505 51.8 33.3705 51.18 33.2105 50.7C33.0505 50.2 32.7805 49.84 32.4005 49.62C32.0405 49.38 31.5405 49.26 30.9005 49.26C30.2205 49.26 29.5805 49.4 28.9805 49.68C28.3805 49.94 27.8205 50.33 27.3005 50.85C26.7805 51.35 26.2805 51.98 25.8005 52.74L25.7705 50.79C26.3105 50.05 26.8505 49.43 27.3905 48.93C27.9505 48.43 28.5505 48.06 29.1905 47.82C29.8305 47.56 30.5505 47.43 31.3505 47.43C32.3105 47.43 33.1505 47.6 33.8705 47.94C34.5905 48.28 35.1405 48.81 35.5205 49.53C35.9205 50.23 36.1205 51.14 36.1205 52.26V60.6C36.1205 61.04 36.3505 61.33 36.8105 61.47C37.2905 61.61 37.8805 61.68 38.5805 61.68H38.6405V63ZM43.3964 55.5C43.3964 56.46 43.5164 57.33 43.7564 58.11C44.0164 58.87 44.3764 59.52 44.8364 60.06C45.3164 60.58 45.8664 60.98 46.4864 61.26C47.1064 61.52 47.7764 61.65 48.4964 61.65C49.3164 61.65 50.0264 61.49 50.6264 61.17C51.2264 60.85 51.7264 60.46 52.1264 60C52.5464 59.52 52.8964 59.05 53.1764 58.59L54.5564 59.79C54.1764 60.43 53.6964 61.02 53.1164 61.56C52.5564 62.1 51.8864 62.53 51.1064 62.85C50.3464 63.15 49.4564 63.3 48.4364 63.3C46.9764 63.3 45.6564 62.98 44.4764 62.34C43.3164 61.7 42.3864 60.79 41.6864 59.61C41.0064 58.43 40.6664 57.04 40.6664 55.44C40.6664 53.86 40.9864 52.47 41.6264 51.27C42.2864 50.07 43.1564 49.13 44.2364 48.45C45.3364 47.77 46.5564 47.43 47.8964 47.43C48.9964 47.43 49.9564 47.61 50.7764 47.97C51.6164 48.33 52.3164 48.87 52.8764 49.59C53.4564 50.29 53.8964 51.18 54.1964 52.26C54.4964 53.32 54.6464 54.56 54.6464 55.98H42.8564L42.8264 54.36H52.6364L51.7964 54.99C51.7764 53.99 51.6864 53.12 51.5264 52.38C51.3664 51.64 51.1264 51.03 50.8064 50.55C50.4864 50.05 50.0864 49.68 49.6064 49.44C49.1264 49.2 48.5564 49.08 47.8964 49.08C47.2764 49.08 46.6864 49.23 46.1264 49.53C45.5864 49.83 45.1064 50.26 44.6864 50.82C44.2864 51.36 43.9664 52.03 43.7264 52.83C43.5064 53.61 43.3964 54.5 43.3964 55.5ZM73.542 41.7C74.702 41.7 75.722 41.83 76.602 42.09C77.502 42.33 78.252 42.69 78.852 43.17C79.472 43.63 79.942 44.2 80.262 44.88C80.582 45.54 80.742 46.28 80.742 47.1C80.742 48.1 80.462 48.99 79.902 49.77C79.342 50.53 78.512 51.12 77.412 51.54C76.312 51.96 74.942 52.17 73.302 52.17L75.672 51.06V52.44L73.602 51.39C75.342 51.39 76.812 51.62 78.012 52.08C79.232 52.54 80.152 53.2 80.772 54.06C81.392 54.9 81.702 55.89 81.702 57.03C81.702 57.95 81.522 58.78 81.162 59.52C80.822 60.26 80.312 60.89 79.632 61.41C78.972 61.93 78.152 62.33 77.172 62.61C76.212 62.87 75.112 63 73.872 63H64.572V61.62H64.902C65.622 61.62 66.222 61.55 66.702 61.41C67.182 61.27 67.422 60.98 67.422 60.54V44.16C67.422 43.72 67.182 43.43 66.702 43.29C66.222 43.15 65.622 43.08 64.902 43.08H64.572V41.7H73.542ZM69.612 51.03H73.542C74.622 51.03 75.482 50.87 76.122 50.55C76.762 50.23 77.222 49.77 77.502 49.17C77.782 48.57 77.922 47.89 77.922 47.13C77.922 46.31 77.762 45.63 77.442 45.09C77.142 44.53 76.672 44.1 76.032 43.8C75.392 43.5 74.552 43.35 73.512 43.35H70.212V61.35H73.812C74.952 61.35 75.892 61.18 76.632 60.84C77.392 60.5 77.942 60.01 78.282 59.37C78.642 58.73 78.822 57.94 78.822 57C78.822 56.16 78.652 55.41 78.312 54.75C77.972 54.09 77.432 53.58 76.692 53.22C75.952 52.84 74.992 52.65 73.812 52.65H69.612V51.03ZM89.4717 40.92V60.6C89.4717 61.04 89.6917 61.33 90.1317 61.47C90.5917 61.61 91.1817 61.68 91.9017 61.68H91.9617V63H84.2817V61.68H84.3417C85.0617 61.68 85.6517 61.61 86.1117 61.47C86.5717 61.33 86.8017 61.04 86.8017 60.6V43.68C86.8017 43.38 86.7217 43.15 86.5617 42.99C86.4017 42.83 86.1617 42.7 85.8417 42.6C85.5217 42.5 85.1017 42.41 84.5817 42.33L84.2517 42.27V40.92H89.4717ZM109.53 55.38C109.53 56.92 109.19 58.29 108.51 59.49C107.83 60.69 106.9 61.63 105.72 62.31C104.54 62.97 103.19 63.3 101.67 63.3C100.17 63.3 98.8202 62.97 97.6202 62.31C96.4402 61.63 95.5102 60.69 94.8302 59.49C94.1702 58.29 93.8402 56.92 93.8402 55.38C93.8402 54.22 94.0302 53.15 94.4102 52.17C94.7902 51.19 95.3302 50.35 96.0302 49.65C96.7502 48.95 97.5802 48.41 98.5202 48.03C99.4802 47.63 100.53 47.43 101.67 47.43C102.81 47.43 103.85 47.63 104.79 48.03C105.75 48.41 106.58 48.95 107.28 49.65C108 50.35 108.55 51.19 108.93 52.17C109.33 53.15 109.53 54.22 109.53 55.38ZM96.6602 55.38C96.6602 56.62 96.8602 57.72 97.2602 58.68C97.6802 59.62 98.2602 60.35 99.0002 60.87C99.7602 61.39 100.65 61.65 101.67 61.65C102.73 61.65 103.63 61.39 104.37 60.87C105.11 60.35 105.68 59.62 106.08 58.68C106.5 57.72 106.71 56.62 106.71 55.38C106.71 54.1 106.5 52.99 106.08 52.05C105.68 51.11 105.11 50.38 104.37 49.86C103.63 49.34 102.73 49.08 101.67 49.08C100.65 49.08 99.7602 49.34 99.0002 49.86C98.2602 50.38 97.6802 51.11 97.2602 52.05C96.8602 52.99 96.6602 54.1 96.6602 55.38ZM127.662 49.86C126.782 49.78 126.032 49.74 125.412 49.74C124.812 49.74 124.302 49.8 123.882 49.92C123.482 50.04 123.152 50.27 122.892 50.61L122.502 50.16C122.782 49.6 123.102 49.12 123.462 48.72C123.842 48.3 124.252 47.96 124.692 47.7C125.132 47.44 125.592 47.27 126.072 47.19C126.572 47.09 127.102 47.07 127.662 47.13V49.86ZM118.902 58.44C117.742 58.44 116.702 58.22 115.782 57.78C114.882 57.32 114.172 56.68 113.652 55.86C113.132 55.04 112.872 54.08 112.872 52.98C112.872 51.88 113.132 50.92 113.652 50.1C114.192 49.26 114.912 48.61 115.812 48.15C116.732 47.67 117.762 47.43 118.902 47.43C120.062 47.43 121.092 47.67 121.992 48.15C122.912 48.61 123.632 49.26 124.152 50.1C124.692 50.92 124.962 51.88 124.962 52.98C124.962 54.08 124.692 55.04 124.152 55.86C123.632 56.68 122.912 57.32 121.992 57.78C121.092 58.22 120.062 58.44 118.902 58.44ZM118.902 56.76C119.602 56.76 120.202 56.62 120.702 56.34C121.222 56.04 121.622 55.61 121.902 55.05C122.182 54.49 122.322 53.8 122.322 52.98C122.322 52.18 122.182 51.49 121.902 50.91C121.622 50.33 121.222 49.89 120.702 49.59C120.202 49.27 119.602 49.11 118.902 49.11C118.222 49.11 117.622 49.27 117.102 49.59C116.602 49.89 116.212 50.33 115.932 50.91C115.652 51.49 115.512 52.18 115.512 52.98C115.512 53.8 115.652 54.49 115.932 55.05C116.212 55.61 116.602 56.04 117.102 56.34C117.622 56.62 118.222 56.76 118.902 56.76ZM118.452 70.11C117.112 70.11 115.902 69.98 114.822 69.72C113.742 69.48 112.882 69.07 112.242 68.49C111.622 67.91 111.312 67.14 111.312 66.18C111.312 65.7 111.432 65.26 111.672 64.86C111.932 64.46 112.312 64.08 112.812 63.72C113.312 63.36 113.952 63 114.732 62.64L115.782 63.42C115.282 63.66 114.872 63.92 114.552 64.2C114.232 64.48 114.002 64.77 113.862 65.07C113.722 65.39 113.652 65.72 113.652 66.06C113.652 66.56 113.822 66.98 114.162 67.32C114.502 67.66 115.032 67.92 115.752 68.1C116.472 68.28 117.382 68.37 118.482 68.37H119.532C120.552 68.37 121.452 68.24 122.232 67.98C123.032 67.74 123.662 67.39 124.122 66.93C124.582 66.49 124.812 65.98 124.812 65.4C124.812 64.82 124.592 64.4 124.152 64.14C123.732 63.88 122.922 63.75 121.722 63.75H114.912L114.822 63.72C114.202 63.4 113.702 63.09 113.322 62.79C112.962 62.47 112.702 62.14 112.542 61.8C112.402 61.46 112.332 61.1 112.332 60.72C112.332 60.24 112.452 59.79 112.692 59.37C112.932 58.95 113.292 58.55 113.772 58.17C114.252 57.77 114.852 57.4 115.572 57.06L116.712 57.84C116.292 58.04 115.932 58.25 115.632 58.47C115.332 58.69 115.102 58.93 114.942 59.19C114.802 59.43 114.732 59.69 114.732 59.97C114.732 60.39 114.942 60.7 115.362 60.9C115.802 61.08 116.422 61.17 117.222 61.17H121.782C122.982 61.17 123.982 61.31 124.782 61.59C125.602 61.85 126.222 62.26 126.642 62.82C127.062 63.36 127.272 64.05 127.272 64.89C127.272 66.07 126.912 67.05 126.192 67.83C125.492 68.61 124.552 69.18 123.372 69.54C122.212 69.92 120.942 70.11 119.562 70.11H118.452Z" fill="#45B7F8"/>
<path d="M13.232 100V98.712H13.54C14.0067 98.712 14.4173 98.684 14.772 98.628C15.1267 98.572 15.4067 98.4693 15.612 98.32C15.8173 98.152 15.92 97.928 15.92 97.648V82.416C15.92 82.136 15.8173 81.9307 15.612 81.8C15.4067 81.6507 15.1267 81.548 14.772 81.492C14.4173 81.436 14.0067 81.408 13.54 81.408H13.232V80.12H19.896L25.552 97.564L25.02 97.48L30.816 80.12H37.34V81.408H37.032C36.6027 81.408 36.2013 81.436 35.828 81.492C35.4733 81.548 35.1933 81.6507 34.988 81.8C34.7827 81.9307 34.68 82.136 34.68 82.416V97.704C34.68 97.9653 34.7827 98.1707 34.988 98.32C35.1933 98.4693 35.4733 98.572 35.828 98.628C36.2013 98.684 36.6027 98.712 37.032 98.712H37.34V100H29.668V98.712H29.92C30.2747 98.712 30.6107 98.7027 30.928 98.684C31.264 98.6653 31.5347 98.6373 31.74 98.6C31.964 98.544 32.076 98.488 32.076 98.432V80.708L32.356 80.764L25.72 100.056H24.04L17.404 80.736L17.684 80.792V98.404C17.684 98.46 17.8053 98.516 18.048 98.572C18.3093 98.628 18.6173 98.6653 18.972 98.684C19.3267 98.7027 19.6627 98.712 19.98 98.712H20.12V100H13.232ZM54.2634 92.888C54.2634 94.3253 53.946 95.604 53.3114 96.724C52.6954 97.844 51.8367 98.7213 50.7354 99.356C49.634 99.972 48.374 100.28 46.9554 100.28C45.5367 100.28 44.2767 99.972 43.1754 99.356C42.074 98.7213 41.206 97.844 40.5714 96.724C39.9367 95.604 39.6194 94.3253 39.6194 92.888C39.6194 91.8053 39.7967 90.816 40.1514 89.92C40.5247 89.0053 41.038 88.2213 41.6914 87.568C42.3634 86.896 43.138 86.3827 44.0154 86.028C44.9114 85.6547 45.8914 85.468 46.9554 85.468C48.0194 85.468 48.99 85.6547 49.8674 86.028C50.7634 86.3827 51.538 86.896 52.1914 87.568C52.8634 88.2213 53.3767 89.0053 53.7314 89.92C54.086 90.816 54.2634 91.8053 54.2634 92.888ZM42.2514 92.888C42.2514 94.0453 42.438 95.072 42.8114 95.968C43.2034 96.8453 43.7447 97.5267 44.4354 98.012C45.1447 98.4973 45.9847 98.74 46.9554 98.74C47.926 98.74 48.7567 98.4973 49.4474 98.012C50.138 97.5267 50.67 96.8453 51.0434 95.968C51.4354 95.072 51.6314 94.0453 51.6314 92.888C51.6314 91.6933 51.4354 90.6573 51.0434 89.78C50.67 88.9027 50.138 88.2307 49.4474 87.764C48.7567 87.2787 47.926 87.036 46.9554 87.036C45.9847 87.036 45.1447 87.2787 44.4354 87.764C43.7447 88.2307 43.2034 88.9027 42.8114 89.78C42.438 90.6573 42.2514 91.6933 42.2514 92.888ZM61.3273 79.392V97.76C61.3273 98.1707 61.5326 98.4413 61.9433 98.572C62.3726 98.7027 62.9233 98.768 63.5953 98.768H63.6513V100H56.4833V98.768H56.5393C57.2113 98.768 57.7619 98.7027 58.1913 98.572C58.6206 98.4413 58.8353 98.1707 58.8353 97.76V81.968C58.8353 81.688 58.7606 81.4733 58.6113 81.324C58.4619 81.1747 58.2379 81.0533 57.9393 80.96C57.6406 80.8667 57.2486 80.7827 56.7633 80.708L56.4552 80.652V79.392H61.3273ZM73.4679 98.712L73.1039 99.748L71.7319 100.42L66.4679 87.96C66.3559 87.6987 66.2065 87.5027 66.0199 87.372C65.8332 87.2227 65.5999 87.12 65.3199 87.064C65.0399 87.008 64.7225 86.98 64.3679 86.98H64.3399V85.748H71.2839V86.98H71.2279C70.8545 86.98 70.4812 86.9893 70.1079 87.008C69.7345 87.0267 69.4172 87.0547 69.1559 87.092C68.9132 87.1107 68.7919 87.1573 68.7919 87.232L73.4679 98.712ZM73.7199 99.524C73.2159 100.737 72.7119 101.783 72.2079 102.66C71.7039 103.556 71.1812 104.275 70.6399 104.816C70.1172 105.376 69.5572 105.796 68.9599 106.076C68.3812 106.356 67.7372 106.496 67.0279 106.496C66.5612 106.496 66.1692 106.44 65.8519 106.328C65.5532 106.235 65.3012 106.123 65.0959 105.992V103.752C65.1519 103.771 65.2639 103.817 65.4319 103.892C65.6185 103.985 65.8519 104.069 66.1319 104.144C66.4119 104.219 66.7105 104.256 67.0279 104.256C67.4572 104.256 67.8865 104.181 68.3159 104.032C68.7452 103.901 69.1839 103.631 69.6319 103.22C70.0799 102.828 70.5372 102.249 71.0039 101.484C71.4705 100.719 71.9465 99.7293 72.4319 98.516L72.6279 97.984L76.8559 87.624C76.8559 87.4933 76.7439 87.3813 76.5199 87.288C76.2959 87.1947 76.0065 87.12 75.6519 87.064C75.2972 87.008 74.9425 86.98 74.5879 86.98H74.5039V85.748H80.4959V86.98C80.2159 86.98 79.9452 87.0173 79.6839 87.092C79.4225 87.1667 79.1799 87.2973 78.9559 87.484C78.7319 87.652 78.5452 87.9133 78.3959 88.268L73.7199 99.524ZM86.3656 85.748V95.464C86.3656 96.1733 86.4403 96.7613 86.5896 97.228C86.7576 97.6947 87.0096 98.04 87.3456 98.264C87.7003 98.4693 88.1763 98.572 88.7736 98.572C89.3896 98.572 89.9683 98.4507 90.5096 98.208C91.0509 97.9467 91.5643 97.5827 92.0496 97.116C92.5349 96.6493 92.9923 96.0613 93.4216 95.352L93.4496 97.2C92.9643 97.8907 92.4603 98.46 91.9376 98.908C91.4336 99.356 90.8923 99.7013 90.3136 99.944C89.7349 100.168 89.0723 100.28 88.3256 100.28C87.4483 100.28 86.6736 100.121 86.0016 99.804C85.3296 99.4867 84.8069 98.992 84.4336 98.32C84.0603 97.648 83.8736 96.7987 83.8736 95.772V88.324C83.8736 87.9133 83.7056 87.6333 83.3696 87.484C83.0523 87.316 82.5389 87.176 81.8296 87.064L81.4936 87.008V85.748H86.3656ZM95.4376 85.748V97.76C95.4376 98.0213 95.5403 98.2267 95.7456 98.376C95.9509 98.5253 96.2216 98.628 96.5576 98.684C96.8936 98.74 97.2856 98.768 97.7336 98.768H97.8176V100H93.1976V97.088L92.9456 96.724V88.324C92.9456 87.9133 92.7683 87.6333 92.4136 87.484C92.0776 87.316 91.5456 87.1853 90.8176 87.092L90.2016 87.008V85.748H95.4376ZM103.811 85.748V95.464C103.811 96.1733 103.886 96.7613 104.035 97.228C104.203 97.6947 104.455 98.04 104.791 98.264C105.146 98.4693 105.622 98.572 106.219 98.572C106.835 98.572 107.414 98.4507 107.955 98.208C108.496 97.9467 109.01 97.5827 109.495 97.116C109.98 96.6493 110.438 96.0613 110.867 95.352L110.895 97.2C110.41 97.8907 109.906 98.46 109.383 98.908C108.879 99.356 108.338 99.7013 107.759 99.944C107.18 100.168 106.518 100.28 105.771 100.28C104.894 100.28 104.119 100.121 103.447 99.804C102.775 99.4867 102.252 98.992 101.879 98.32C101.506 97.648 101.319 96.7987 101.319 95.772V88.324C101.319 87.9133 101.151 87.6333 100.815 87.484C100.498 87.316 99.9842 87.176 99.2749 87.064L98.9389 87.008V85.748H103.811ZM112.883 85.748V97.76C112.883 98.0213 112.986 98.2267 113.191 98.376C113.396 98.5253 113.667 98.628 114.003 98.684C114.339 98.74 114.731 98.768 115.179 98.768H115.263V100H110.643V97.088L110.391 96.724V88.324C110.391 87.9133 110.214 87.6333 109.859 87.484C109.523 87.316 108.991 87.1853 108.263 87.092L107.647 87.008V85.748H112.883Z" fill="black"/>
</svg>
